<?xml version="1.0" encoding="UTF-8" standalone="no"?>
<!DOCTYPE svg PUBLIC "-//W3C//DTD SVG 1.1//EN" "http://www.w3.org/Graphics/SVG/1.1/DTD/svg11.dtd">
<svg width="100%" height="100%" viewBox="0 0 465 70" version="1.1" xmlns="http://www.w3.org/2000/svg" xmlns:xlink="http://www.w3.org/1999/xlink" xml:space="preserve" xmlns:serif="http://www.serif.com/" style="fill-rule:evenodd;clip-rule:evenodd;stroke-linejoin:round;stroke-miterlimit:2;">
    <g>
        <path d="M46.63,29.542L46.63,4.805L71.408,4.805L71.408,29.588L46.633,29.588L46.633,29.565L46.63,29.542Z" style="fill:rgb(250,184,10);fill-rule:nonzero;"/>
        <path d="M31.544,63.876L31.544,39.094L56.318,39.094L56.318,63.876L31.544,63.876Z" style="fill:rgb(185,17,52);fill-rule:nonzero;"/>
        <path d="M5.489,29.588L5.489,4.805L30.263,4.805L30.263,29.588L5.489,29.588Z" style="fill:rgb(15,45,86);fill-rule:nonzero;"/>
        <path d="M35.733,39.193L35.733,35.076L17.83,35.076L17.83,29.496L30.172,29.496L30.172,25.38L39.868,25.38L39.868,39.193L35.733,39.193Z" style="fill:rgb(252,205,82);fill-rule:nonzero;"/>
        <path d="M35.733,41.929L35.733,39.097L39.868,39.097L39.868,41.929L35.733,41.929Z" style="fill:rgb(227,123,34);fill-rule:nonzero;"/>
        <path d="M17.83,29.542L17.83,17.155L26.151,17.155L26.151,25.38L30.267,25.38L30.267,29.588L17.826,29.588L17.826,29.565L17.83,29.542Z" style="fill:rgb(147,121,72);fill-rule:nonzero;"/>
        <path d="M42.517,21.355L42.517,17.246L30.172,17.246L30.172,4.897L26.059,4.897L26.059,0.697L50.834,0.697L50.834,4.901L46.721,4.901L46.721,21.355L42.517,21.355Z" style="fill:rgb(206,79,91);fill-rule:nonzero;"/>
        <path d="M46.584,21.408L46.584,4.767L50.883,4.767L50.883,21.408L46.584,21.408Z" style="fill:rgb(205,66,47);fill-rule:nonzero;"/>
        <path d="M26.059,17.246L26.059,4.809L30.263,4.809L30.263,17.246L26.059,17.246Z" style="fill:rgb(122,33,67);fill-rule:nonzero;"/>
        <path d="M30.126,25.471L30.126,17.109L42.654,17.109L42.654,21.404L39.91,21.404L39.91,25.521L30.13,25.521L30.13,25.494L30.126,25.471Z" style="fill:rgb(205,70,61);fill-rule:nonzero;"/>
        <path d="M26.059,25.471L26.059,17.155L30.263,17.155L30.263,25.471L26.059,25.471Z" style="fill:rgb(175,53,57);fill-rule:nonzero;"/>
        <path d="M56.231,43.305L56.231,39.189L42.517,39.189L42.517,25.38L46.721,25.38L46.721,29.496L64.555,29.496L64.555,43.305L56.231,43.305Z" style="fill:rgb(66,85,131);fill-rule:nonzero;"/>
        <path d="M46.63,29.588L46.63,25.38L50.746,25.38L50.746,21.263L64.555,21.263L64.555,29.588L46.63,29.588Z" style="fill:rgb(68,75,93);fill-rule:nonzero;"/>
        <path d="M39.777,46.046L39.777,41.838L42.517,41.838L42.517,39.094L56.322,39.094L56.322,43.305L50.834,43.305L50.834,46.046L39.777,46.046Z" style="fill:rgb(63,43,79);fill-rule:nonzero;"/>
        <path d="M39.777,39.189L39.777,25.384L42.608,25.384L42.608,39.189L39.777,39.189Z" style="fill:rgb(68,78,105);fill-rule:nonzero;"/>
        <path d="M39.777,41.929L39.777,39.097L42.608,39.097L42.608,41.929L39.777,41.929Z" style="fill:rgb(67,64,89);fill-rule:nonzero;"/>
        <rect x="42.517" y="21.267" width="4.204" height="4.204" style="fill:rgb(64,56,94);fill-rule:nonzero;"/>
        <rect x="46.63" y="21.267" width="4.208" height="4.204" style="fill:rgb(65,53,84);fill-rule:nonzero;"/>
        <rect x="39.777" y="21.267" width="2.832" height="4.204" style="fill:rgb(65,54,87);fill-rule:nonzero;"/>
        <path d="M50.746,67.992L50.746,63.784L56.231,63.784L56.231,45.954L64.463,45.954L64.463,43.21L75.521,43.21L75.521,67.992L50.746,67.992Z" style="fill:rgb(253,229,165);fill-rule:nonzero;"/>
        <path d="M50.746,63.876L50.746,45.954L56.322,45.954L56.322,63.876L50.746,63.876Z" style="fill:rgb(205,66,47);fill-rule:nonzero;"/>
        <path d="M56.231,46.046L56.231,43.214L64.555,43.214L64.555,46.046L56.231,46.046Z" style="fill:rgb(116,112,115);fill-rule:nonzero;"/>
        <path d="M50.746,46.046L50.746,43.214L56.322,43.214L56.322,46.046L50.746,46.046Z" style="fill:rgb(110,75,80);fill-rule:nonzero;"/>
        <path d="M24.687,59.763L24.687,46.046L10.973,46.046L10.973,34.985L17.922,34.985L17.922,41.838L31.635,41.838L31.635,59.763L24.687,59.763Z" style="fill:rgb(230,159,158);fill-rule:nonzero;"/>
        <path d="M31.544,59.763L31.544,41.842L35.828,41.842L35.828,59.763L31.544,59.763Z" style="fill:rgb(185,17,52);fill-rule:nonzero;"/>
        <path d="M17.83,41.933L17.83,34.985L35.82,34.985L35.82,39.189L31.635,39.189L31.635,41.933L17.83,41.933Z" style="fill:rgb(228,134,71);fill-rule:nonzero;"/>
        <path d="M31.544,41.929L31.544,39.097L35.828,39.097L35.828,41.929L31.544,41.929Z" style="fill:rgb(212,85,44);fill-rule:nonzero;"/>
        <path d="M0,70.733L0,45.95L11.065,45.95L11.065,59.672L24.775,59.672L24.775,70.733L0,70.733Z" style="fill:rgb(146,153,187);fill-rule:nonzero;"/>
        <path d="M10.973,59.763L10.973,45.954L24.775,45.954L24.775,59.763L10.973,59.763Z" style="fill:rgb(137,108,137);fill-rule:nonzero;"/>
    </g>
    <g transform="matrix(1,0,0,1,1048.16,78.4916)">
        <path d="M-953.547,-34.018C-955.509,-34.587 -957.435,-35.275 -959.314,-36.076C-959.639,-36.203 -959.983,-36.277 -960.332,-36.294C-963.629,-36.511 -966.708,-38.939 -966.708,-43.707C-966.708,-48.09 -963.934,-51.383 -959.573,-51.383C-955.106,-51.383 -952.655,-48.002 -952.655,-44.012C-952.655,-40.696 -954.195,-38.352 -956.124,-37.487L-956.124,-37.399C-954.999,-37.071 -953.742,-36.812 -952.591,-36.576L-953.547,-34.018ZM-959.661,-38.916C-957.45,-38.916 -956.147,-41.02 -956.147,-43.882C-956.147,-46.55 -957.405,-48.761 -959.661,-48.761C-961.913,-48.761 -963.217,-46.55 -963.217,-43.817C-963.236,-41.043 -961.894,-38.916 -959.68,-38.916L-959.661,-38.916ZM-943.508,-51.143L-943.508,-42.731C-943.508,-40.216 -942.555,-38.939 -940.863,-38.939C-939.128,-38.939 -938.176,-40.151 -938.176,-42.731L-938.176,-51.143L-934.879,-51.143L-934.879,-42.948C-934.879,-38.44 -937.154,-36.294 -940.973,-36.294C-944.659,-36.294 -946.828,-38.329 -946.828,-42.99L-946.828,-51.147L-943.508,-51.143ZM-919.64,-42.712L-925.015,-42.712L-925.015,-39.244L-919.012,-39.244L-919.012,-36.53L-928.334,-36.53L-928.334,-51.143L-919.316,-51.143L-919.316,-48.437L-925.018,-48.437L-925.018,-45.399L-919.64,-45.399L-919.64,-42.712ZM-904.379,-42.712L-909.753,-42.712L-909.753,-39.244L-903.75,-39.244L-903.75,-36.53L-913.073,-36.53L-913.073,-51.143L-904.051,-51.143L-904.051,-48.437L-909.753,-48.437L-909.753,-45.399L-904.379,-45.399L-904.379,-42.712ZM-897.812,-36.53L-897.812,-51.143L-893.951,-51.143L-890.917,-45.788C-890.013,-44.172 -889.216,-42.499 -888.531,-40.78L-888.466,-40.78C-888.675,-42.811 -888.769,-44.852 -888.748,-46.893L-888.748,-51.143L-885.711,-51.143L-885.711,-36.53L-889.179,-36.53L-892.305,-42.171C-893.17,-43.73 -894.123,-45.617 -894.839,-47.328L-894.908,-47.309C-894.82,-45.38 -894.774,-43.318 -894.774,-40.936L-894.774,-36.534L-897.812,-36.53ZM-875.66,-51.536C-876.308,-49.495 -877.18,-47.531 -878.259,-45.681L-880.256,-45.487C-879.605,-47.351 -879.041,-49.432 -878.759,-51.341L-875.66,-51.536ZM-870.541,-39.937C-869.653,-39.48 -868.288,-39.023 -866.878,-39.023C-865.361,-39.023 -864.557,-39.655 -864.557,-40.608C-864.557,-41.519 -865.251,-42.038 -867.008,-42.666C-869.436,-43.513 -871.017,-44.858 -871.017,-46.981C-871.017,-49.474 -868.936,-51.383 -865.491,-51.383C-863.844,-51.383 -862.628,-51.036 -861.759,-50.644L-862.499,-47.976C-863.451,-48.439 -864.497,-48.677 -865.556,-48.673C-866.985,-48.673 -867.682,-48.025 -867.682,-47.263C-867.682,-46.333 -866.855,-45.918 -864.972,-45.205C-862.388,-44.252 -861.176,-42.907 -861.176,-40.845C-861.176,-38.398 -863.063,-36.294 -867.073,-36.294C-868.742,-36.294 -870.389,-36.751 -871.216,-37.205L-870.541,-39.937ZM-844.112,-51.143L-844.112,-42.731C-844.112,-40.216 -843.159,-38.939 -841.467,-38.939C-839.729,-38.939 -838.776,-40.151 -838.776,-42.731L-838.776,-51.143L-835.479,-51.143L-835.479,-42.948C-835.479,-38.44 -837.758,-36.294 -841.574,-36.294C-845.259,-36.294 -847.428,-38.329 -847.428,-42.99L-847.428,-51.147L-844.112,-51.143ZM-828.935,-36.53L-828.935,-51.143L-825.078,-51.143L-822.04,-45.788C-821.138,-44.172 -820.342,-42.499 -819.658,-40.78L-819.593,-40.78C-819.8,-42.811 -819.893,-44.852 -819.871,-46.893L-819.871,-51.143L-816.837,-51.143L-816.837,-36.53L-820.306,-36.53L-823.431,-42.171C-824.296,-43.73 -825.249,-45.617 -825.966,-47.328L-826.031,-47.309C-825.943,-45.38 -825.901,-43.318 -825.901,-40.936L-825.901,-36.534L-828.935,-36.53ZM-810.293,-51.143L-806.977,-51.143L-806.977,-36.53L-810.293,-36.53L-810.293,-51.143ZM-796.98,-36.53L-801.664,-51.143L-798.043,-51.143L-796.263,-44.969C-795.767,-43.231 -795.31,-41.561 -794.967,-39.739L-794.898,-39.739C-794.529,-41.477 -794.088,-43.199 -793.576,-44.9L-791.708,-51.143L-788.202,-51.143L-793.118,-36.53L-796.98,-36.53ZM-774.259,-42.712L-779.633,-42.712L-779.633,-39.244L-773.63,-39.244L-773.63,-36.53L-782.953,-36.53L-782.953,-51.143L-773.935,-51.143L-773.935,-48.437L-779.637,-48.437L-779.637,-45.399L-774.259,-45.399L-774.259,-42.712ZM-767.692,-50.949C-766.629,-51.124 -765.047,-51.254 -763.29,-51.254C-761.125,-51.254 -759.604,-50.93 -758.564,-50.103C-757.698,-49.409 -757.222,-48.387 -757.222,-47.046C-757.222,-45.178 -758.545,-43.901 -759.799,-43.448L-759.799,-43.383C-758.781,-42.971 -758.217,-41.996 -757.847,-40.65C-757.394,-39.004 -756.94,-37.094 -756.658,-36.534L-760.039,-36.534C-760.279,-36.964 -760.626,-38.135 -761.06,-39.937C-761.449,-41.759 -762.078,-42.255 -763.423,-42.278L-764.418,-42.278L-764.418,-36.534L-767.696,-36.534L-767.696,-50.949L-767.692,-50.949ZM-764.418,-44.66L-763.122,-44.66C-761.472,-44.66 -760.492,-45.487 -760.492,-46.764C-760.492,-48.109 -761.407,-48.784 -762.924,-48.803C-763.724,-48.803 -764.182,-48.738 -764.418,-48.696L-764.418,-44.66ZM-751.04,-39.934C-750.152,-39.476 -748.791,-39.023 -747.381,-39.023C-745.86,-39.023 -745.056,-39.655 -745.056,-40.608C-745.056,-41.519 -745.753,-42.038 -747.51,-42.666C-749.938,-43.513 -751.52,-44.858 -751.52,-46.981C-751.52,-49.474 -749.439,-51.383 -745.993,-51.383C-744.343,-51.383 -743.127,-51.036 -742.258,-50.644L-742.998,-47.976C-743.95,-48.439 -744.996,-48.677 -746.054,-48.673C-747.484,-48.673 -748.181,-48.025 -748.181,-47.263C-748.181,-46.333 -747.358,-45.918 -745.471,-45.205C-742.891,-44.252 -741.675,-42.907 -741.675,-40.845C-741.675,-38.398 -743.562,-36.294 -747.571,-36.294C-749.245,-36.294 -750.887,-36.751 -751.714,-37.205L-751.04,-39.934ZM-735.756,-51.143L-732.44,-51.143L-732.44,-36.53L-735.756,-36.53L-735.756,-51.143ZM-723.075,-48.368L-727.001,-48.368L-727.001,-51.143L-715.768,-51.143L-715.768,-48.368L-719.759,-48.368L-719.759,-36.53L-723.075,-36.53L-723.075,-48.368ZM-707.017,-36.53L-707.017,-42.514L-711.633,-51.143L-707.86,-51.143L-706.365,-47.633C-705.908,-46.569 -705.603,-45.788 -705.237,-44.835L-705.195,-44.835C-704.868,-45.746 -704.521,-46.588 -704.09,-47.633L-702.615,-51.143L-698.906,-51.143L-703.72,-42.625L-703.72,-36.53L-707.017,-36.53ZM-685.662,-51.143L-682.346,-51.143L-682.346,-39.305L-676.533,-39.305L-676.533,-36.53L-685.662,-36.53L-685.662,-51.143ZM-670.942,-51.143L-667.626,-51.143L-667.626,-36.53L-670.942,-36.53L-670.942,-51.143ZM-661.119,-50.953C-660.254,-51.124 -658.497,-51.254 -656.851,-51.254C-654.831,-51.254 -653.596,-51.059 -652.536,-50.43C-651.515,-49.885 -650.783,-48.891 -650.783,-47.568C-650.783,-46.264 -651.537,-45.052 -653.184,-44.443L-653.184,-44.404C-651.515,-43.947 -650.28,-42.689 -650.28,-40.803C-650.28,-39.48 -650.889,-38.44 -651.797,-37.704C-652.864,-36.854 -654.64,-36.381 -657.544,-36.381C-659.172,-36.381 -660.384,-36.488 -661.119,-36.595L-661.119,-50.953ZM-657.849,-45.357L-656.763,-45.357C-655.029,-45.357 -654.095,-46.07 -654.095,-47.156C-654.095,-48.262 -654.941,-48.849 -656.439,-48.849C-656.911,-48.856 -657.382,-48.827 -657.849,-48.761L-657.849,-45.357ZM-657.849,-38.874C-657.521,-38.832 -657.133,-38.832 -656.569,-38.832C-655.074,-38.832 -653.748,-39.415 -653.748,-40.932C-653.748,-42.407 -655.074,-42.99 -656.721,-42.99L-657.849,-42.99L-657.849,-38.874ZM-644.383,-50.949C-643.324,-51.124 -641.738,-51.254 -639.985,-51.254C-637.816,-51.254 -636.299,-50.93 -635.259,-50.103C-634.39,-49.409 -633.913,-48.387 -633.913,-47.046C-633.913,-45.178 -635.236,-43.901 -636.494,-43.448L-636.494,-43.383C-635.472,-42.971 -634.912,-41.996 -634.542,-40.65C-634.085,-39.004 -633.627,-37.094 -633.349,-36.534L-636.734,-36.534C-636.97,-36.964 -637.317,-38.135 -637.751,-39.937C-638.14,-41.759 -638.769,-42.255 -640.114,-42.278L-641.113,-42.278L-641.113,-36.534L-644.387,-36.534L-644.387,-50.949L-644.383,-50.949ZM-641.113,-44.66L-639.81,-44.66C-638.163,-44.66 -637.187,-45.487 -637.187,-46.764C-637.187,-48.109 -638.098,-48.784 -639.615,-48.803C-640.416,-48.803 -640.873,-48.738 -641.113,-48.696L-641.113,-44.66ZM-624.453,-40.28L-625.494,-36.53L-628.92,-36.53L-624.453,-51.147L-620.116,-51.147L-615.584,-36.53L-619.14,-36.53L-620.268,-40.28L-624.453,-40.28ZM-620.745,-42.754L-621.659,-45.853C-621.915,-46.722 -622.178,-47.804 -622.395,-48.673L-622.437,-48.673C-622.654,-47.804 -622.871,-46.699 -623.108,-45.853L-623.977,-42.754L-620.745,-42.754ZM-609.95,-50.949C-608.887,-51.124 -607.305,-51.254 -605.548,-51.254C-603.383,-51.254 -601.862,-50.93 -600.822,-50.103C-599.957,-49.409 -599.48,-48.387 -599.48,-47.046C-599.48,-45.178 -600.803,-43.901 -602.057,-43.448L-602.057,-43.383C-601.039,-42.971 -600.475,-41.996 -600.109,-40.65C-599.652,-39.004 -599.194,-37.094 -598.916,-36.534L-602.297,-36.534C-602.537,-36.964 -602.884,-38.135 -603.318,-39.937C-603.707,-41.759 -604.336,-42.255 -605.682,-42.278L-606.676,-42.278L-606.676,-36.534L-609.954,-36.534L-609.954,-50.949L-609.95,-50.949ZM-606.676,-44.66L-605.377,-44.66C-603.73,-44.66 -602.754,-45.487 -602.754,-46.764C-602.754,-48.109 -603.665,-48.784 -605.182,-48.803C-605.983,-48.803 -606.44,-48.738 -606.676,-48.696L-606.676,-44.66ZM-590.439,-36.53L-590.439,-42.514L-595.055,-51.143L-591.282,-51.143L-589.788,-47.633C-589.33,-46.569 -589.029,-45.788 -588.66,-44.835L-588.618,-44.835C-588.294,-45.746 -587.947,-46.588 -587.512,-47.633L-586.037,-51.143L-582.329,-51.143L-587.143,-42.625L-587.143,-36.53L-590.439,-36.53Z" style="fill:rgb(184,18,55);fill-rule:nonzero;"/>
    </g>
</svg>
