<svg xmlns="http://www.w3.org/2000/svg" width="84.738" height="84.738" viewBox="0 0 84.738 84.738"><title>QUL-Home</title><circle cx="42.369" cy="42.369" r="42.369" fill="#b61137"/><path d="M877.774,3091.516l-28.536-28.536-12.733-.38-3.183-4.6-6.228,18.685,8.783,6.566-18.457,22.948,18.513,18.513c0.16,0,.318.012,0.478,0.012A42.377,42.377,0,0,0,877.774,3091.516Z" transform="translate(-794.042 -3039.982)" fill="#8e2629"/><path d="M849.516,3076.681h-2.63v-1.523c-1,1.143-1.842,1.72-2.763,1.72a1.653,1.653,0,0,1-1.651-1.07,5.569,5.569,0,0,1-.292-2.034V3062.7h2.63v11.35a0.509,0.509,0,0,0,.561.53,2.212,2.212,0,0,0,1.515-1.222V3062.7h2.63v13.979" transform="translate(-794.042 -3039.982)" fill="#fff"/><path d="M837.612,3072.529c0.138,1.384-.291,2.071-1.108,2.071s-1.245-.687-1.107-2.071v-5.536c-0.138-1.384.291-2.033,1.107-2.033s1.247,0.649,1.109,2.033v5.536Zm2.63-5.26a5.569,5.569,0,0,0-.83-3.322,3.489,3.489,0,0,0-2.907-1.348,3.314,3.314,0,0,0-2.907,1.348,5.552,5.552,0,0,0-.828,3.334l0,4.971a5.156,5.156,0,0,0,.8,3.211,3.664,3.664,0,0,0,2.941,1.458,3.7,3.7,0,0,0,2.962-1.458,5.223,5.223,0,0,0,.775-3.211v-4.983" transform="translate(-794.042 -3039.982)" fill="#fff"/><path d="M829.861,3069.069v7.613h-2.768v-7.613s-2.868-9.333-3.46-11.073h2.907l1.943,7.291,1.933-7.291h2.907l-3.46,11.073" transform="translate(-794.042 -3039.982)" fill="#fff"/><path d="M835.342,3108.549v-0.014H834.3v-0.014h-0.927v-0.014h-0.844v-0.014h-0.775v-0.014h-0.706v-0.014h-0.664v-0.014h-0.637v-0.014h-0.581v-0.014h-0.54v-0.014h-0.512V3108.4h-0.484v-0.014h-0.457v-0.014h-0.429v-0.014h-0.4v-0.014h-0.388v-0.014H825.6v-0.014h-0.346V3108.3h-0.318v-0.014h-0.3v-0.014h-0.277v-0.014h-0.277v-0.014h-0.235v-0.014h-0.235v-0.014h-0.221V3108.2h-0.208v-0.014H823v-0.014h-0.18v-0.014h-0.152v-0.014h-0.152v-0.014h-0.083v-0.014h-0.1v-0.014h-0.1v-0.014h-0.111v-0.014h-0.111v-0.014H821.9v-0.014h-0.111v-0.014h-0.125v-0.014h-0.1v-0.014h-0.1V3108h-0.111v-0.014H821.28v-0.014H821.2v-0.014h-0.083v-0.014h-0.083v-0.014h-0.069v-0.014h-0.069V3107.9h-0.069v-0.014h-0.069v-0.014H820.7v-0.014h-0.055v-0.014h-0.055v-0.014h-0.069v-0.014h-0.055V3107.8h-0.042v-0.014h-0.055v-0.014h-0.042v-0.014H820.27v-0.014h-0.042v-0.014h-0.055v-0.014h-0.042V3107.7H820.09v-0.014h-0.042v-0.014h-0.042v-0.014h-0.042v-0.014h-0.042v-0.014H819.9v-0.014h-0.042v-0.014h-0.042v-0.014h-0.028v-0.014h-0.042v-0.014h-0.028v-0.014h-0.042v-0.014h-0.028v-0.014h-0.028v-0.014h-0.042V3107.5H819.55v-0.014h-0.042v-0.014h-0.028v-0.014h-0.028v-0.014h-0.028v-0.014H819.4v-0.014H819.37V3107.4h-0.028v-0.014h-0.028v-0.014h-0.028v-0.014h-0.028v-0.014h-0.028v-0.014H819.2v-0.014h-0.028V3107.3h-0.014v-0.014h-0.028v-0.014h-0.028v-0.014h-0.028v-0.014h-0.014v-0.014h-0.028v-0.014H819.01v-0.014h-0.028v-0.014h-0.014v-0.014h-0.028v-0.014h-0.028v-0.014H818.9v-0.014h-0.028v-0.014h-0.014v-0.014H818.83V3107.1h-0.014v-0.014h-0.028v-0.014h-0.014v-0.014h-0.028v-0.014h-0.014v-0.014h-0.028v-0.014h-0.014V3107h-0.028v-0.014H818.65v-0.014h-0.014v-0.014h-0.028v-0.014h-0.014v-0.014h-0.028v-0.014h-0.014V3106.9h-0.014v-0.014h-0.028v-0.014H818.5v-0.014h-0.014v-0.014H818.47v-0.014h-0.014v-0.014h-0.028v-0.014h-0.014v-0.014H818.4v-0.014h-0.014v-0.014h-0.028v-0.014h-0.014v-0.014h-0.014v-0.014h-0.014v-0.014H818.29v-0.014h-0.014v-0.014h-0.014v-0.014h-0.014v-0.014h-0.014v-0.014h-0.014v-0.014h-0.014v-0.014h-0.014V3106.6H818.18v-0.014h-0.014v-0.014h-0.014v-0.014h-0.014v-0.014h-0.014v-0.014H818.11v-0.014h-0.028V3106.5h-0.014v-0.014h-0.014v-0.014h-0.014v-0.014h-0.014v-0.014h-0.014v-0.014H818v-0.014h-0.014V3106.4h-0.014v-0.014h-0.014v-0.014h-0.014v-0.014H817.93v-0.014h-0.014v-0.028H817.9v-0.014h-0.014v-0.014h-0.014v-0.014h-0.014v-0.014h-0.014v-0.014h-0.014v-0.014H817.82v-0.028h-0.014V3106.2h-0.014v-0.014h-0.014v-0.014h-0.014v-0.014H817.75v-0.014h-0.014v-0.014h-0.014V3106.1h-0.014v-0.014H817.7v-0.028h-0.014v-0.014h-0.014v-0.014h-0.014V3106H817.64v-0.014h-0.014v-0.028h-0.014v-0.014H817.6v-0.014h-0.014v-0.028h-0.014v-0.014h-0.014v-0.014h-0.014v-0.028h-0.014v-0.014h-0.014v-0.028H817.5v-0.028h-0.014v-0.014h-0.014v-0.028H817.46v-0.028h-0.014V3105.7h-0.014v-0.028h-0.014v-0.028H817.4v-0.014h-0.014V3105.6h-0.014v-0.028h-0.014v-0.014h-0.014v-0.028h-0.014V3105.5h-0.014v-0.028h-0.014v-0.028h-0.014v-0.028H817.28v-0.028h-0.014v-0.028h-0.014v-0.028h-0.014v-0.028h-0.014V3105.3h-0.014v-0.028H817.2v-0.028h-0.014v-0.028h-0.014v-0.042h-0.014v-0.028h-0.014v-0.028h-0.014v-0.028h-0.014v-0.042H817.1v-0.028h-0.014v-0.028h-0.014v-0.028h-0.014v-0.028h-0.014V3104.9h-0.014v-0.028h-0.014v-0.042H817V3104.8h-0.014v-0.042h-0.014v-0.028h-0.014v-0.042h-0.014v-0.028h-0.014v-0.042H816.92v-0.028h-0.014v-0.042h-0.014v-0.042h-0.014v-0.042h-0.014v-0.028h-0.014V3104.4h-0.014v-0.042h-0.014v-0.042h-0.014v-0.042H816.8v-0.042h-0.014v-0.042h-0.014v-0.042h-0.014v-0.042H816.74v-0.042h-0.014v-0.042h-0.014v-0.055H816.7v-0.042h-0.014v-0.042h-0.014v-0.055h-0.014v-0.042h-0.014v-0.055h-0.014v-0.042h-0.014v-0.055H816.6v-0.042h-0.014v-0.055h-0.014v-0.055H816.56v-0.055h-0.014v-0.055h-0.014v-0.055h-0.014v-0.055H816.5v-0.055h-0.014v-0.055h-0.014v-0.069h-0.014v-0.055h-0.014v-0.069h-0.014V3102.9h-0.014v-0.069h-0.014v-0.069h-0.014v-0.069H816.38v-0.069h-0.014v-0.083h-0.014v-0.069h-0.014v-0.083h-0.014v-0.1h-0.014v-0.111H816.3v-0.125h-0.014v-0.125h-0.014v-0.125h-0.014v-0.125h-0.014v-0.138h-0.014v-0.125h-0.014v-0.152H816.2v-0.138h-0.014v-0.138h-0.014v-0.152h-0.014v-0.152h-0.014v-0.152h-0.014v-0.166h-0.014V3100.2H816.1v-0.166H816.09v-0.18h-0.014v-0.18h-0.014v-0.194h-0.014v-0.194h-0.014v-0.208H816.02v-0.221h-0.014v-0.221h-0.014v-0.249h-0.014v-0.249h-0.014v-0.3h-0.014v-0.318h-0.014v-0.4h-0.014V3096.6H815.91v-5.066h0.014v-0.512h0.014v-0.4h0.014v-0.318h0.014v-0.291h0.014v-0.263h0.014V3089.5h0.014v-0.221h0.014v-0.221h0.014v-0.208h0.014v-0.194h0.014v-0.194h0.014v-0.18h0.014v-0.166H816.1v-0.18h0.014v-0.166h0.014v-0.152h0.014v-0.166h0.014V3087.3h0.014v-0.138h0.014v-0.152H816.2v-0.138h0.014v-0.138h0.014V3086.6h0.014v-0.138h0.014v-0.125h0.014v-0.125h0.014v-0.125H816.3v-0.125h0.014v-0.111h0.014v-0.1h0.014v-0.069h0.014V3085.6h0.014v-0.069h0.014v-0.083h0.014v-0.069h0.014v-0.069h0.014v-0.055h0.014v-0.069h0.014v-0.069h0.014v-0.055h0.014v-0.055h0.014v-0.069H816.5v-0.055h0.014v-0.055h0.014v-0.055h0.014v-0.055h0.014v-0.055h0.014V3084.6h0.014v-0.042H816.6v-0.055h0.014v-0.055h0.014v-0.042h0.014v-0.055h0.014v-0.042h0.014v-0.055h0.014v-0.042H816.7v-0.042h0.014v-0.042h0.014v-0.042h0.014v-0.055h0.014V3084h0.014v-0.042h0.014v-0.042H816.8v-0.042h0.014v-0.042h0.014v-0.042h0.014v-0.028h0.014v-0.042h0.014v-0.042h0.014v-0.042h0.014v-0.042h0.014v-0.028h0.014v-0.042h0.014V3083.5h0.014v-0.042h0.014v-0.042h0.014v-0.028h0.014v-0.042H817v-0.028h0.014v-0.042h0.014v-0.028h0.014v-0.028h0.014v-0.028h0.014v-0.042h0.014v-0.028H817.1V3083.1h0.014v-0.028h0.014v-0.042h0.014V3083h0.014v-0.028h0.014v-0.028h0.014v-0.028H817.2v-0.028h0.014v-0.028h0.014v-0.028h0.014V3082.8h0.014v-0.028h0.014v-0.028h0.014v-0.028h0.014v-0.028h0.014v-0.028h0.014v-0.028h0.014v-0.028h0.014V3082.6h0.014v-0.028h0.014v-0.028h0.014v-0.014H817.4V3082.5h0.014v-0.028h0.014v-0.014h0.014v-0.028h0.014V3082.4h0.014v-0.014h0.014v-0.028H817.5v-0.028h0.014v-0.014h0.014v-0.028h0.014v-0.014h0.014v-0.028h0.014v-0.014h0.014v-0.014H817.6V3082.2h0.014v-0.014h0.014v-0.028h0.014v-0.014h0.014v-0.014h0.014V3082.1h0.014v-0.014H817.7v-0.028h0.014v-0.014h0.014v-0.014h0.014V3082h0.014v-0.014h0.014v-0.014h0.014v-0.014h0.014v-0.014h0.014v-0.014h0.014v-0.014h0.014v-0.014h0.014v-0.028h0.014v-0.014h0.014v-0.014h0.014v-0.014H817.9v-0.014h0.014v-0.014h0.014v-0.014h0.014v-0.028h0.014v-0.014h0.014v-0.014h0.014v-0.014H818v-0.014h0.028V3081.7h0.014v-0.014h0.014v-0.014h0.014v-0.014h0.014v-0.014H818.1v-0.014h0.014v-0.014h0.014V3081.6h0.014v-0.014h0.014v-0.014h0.014v-0.014h0.014v-0.014h0.014v-0.014h0.014v-0.014h0.014V3081.5h0.014v-0.014h0.014v-0.014h0.014v-0.014h0.014v-0.014h0.014v-0.014h0.028v-0.014h0.014v-0.014h0.014v-0.014h0.014v-0.014h0.014v-0.014H818.4v-0.014h0.014v-0.014h0.014v-0.014h0.014v-0.014h0.014V3081.3h0.014v-0.014H818.5v-0.014h0.014v-0.014h0.014v-0.014h0.014v-0.014h0.014v-0.014h0.028V3081.2h0.014v-0.014h0.014v-0.014h0.028v-0.014h0.014v-0.014h0.028v-0.014h0.014v-0.014h0.014V3081.1h0.028v-0.014h0.014v-0.014h0.014v-0.014h0.028v-0.014H818.8v-0.014h0.028v-0.014h0.014v-0.014h0.014v-0.014h0.028v-0.014H818.9v-0.014h0.028v-0.014h0.028v-0.014h0.014v-0.014H819v-0.014h0.014v-0.014h0.028v-0.014h0.028v-0.014h0.014v-0.014h0.028v-0.014h0.014v-0.014h0.028v-0.014h0.028V3080.8H819.2v-0.014h0.014v-0.014h0.028v-0.014h0.028v-0.014H819.3v-0.014h0.028v-0.014h0.028V3080.7h0.014v-0.014H819.4v-0.014h0.028v-0.014h0.028v-0.014h0.028v-0.014h0.028v-0.014h0.042V3080.6h0.028v-0.014h0.028v-0.014h0.028v-0.014h0.028v-0.014h0.028v-0.014h0.042v-0.014h0.028v-0.014h0.028v-0.014h0.042v-0.014h0.042v-0.014H819.9v-0.014h0.042v-0.014h0.028v-0.014h0.042v-0.014h0.028V3080.4h0.042v-0.014h0.055v-0.014h0.042v-0.014h0.042v-0.014h0.042v-0.014H820.3v-0.014h0.042V3080.3h0.055v-0.014h0.055v-0.014h0.042v-0.014h0.055v-0.014H820.6v-0.014h0.055v-0.014h0.069V3080.2h0.055v-0.014h0.069v-0.014h0.069v-0.014H821v-0.014h0.069v-0.014h0.1v-0.014h0.1v-0.014h0.1v-0.014h0.111v-0.014H821.6v-0.014h0.138v-0.014h0.138v-0.014h0.138v-0.014h0.152v-0.014h0.194V3080h0.208v-0.014h0.208v-0.014H823v-0.014h0.221v-0.014h0.249v-0.014H823.7v-0.014h0.249V3079.9h0.263v-0.014h0.277v-0.014h0.291v-0.014h0.291v-0.014h0.318v-0.014h0.318v-0.014h0.332V3079.8h0.36v-0.014h0.374v-0.014h0.388v-0.014h0.415v-0.014h0.443v-0.014h0.471v-0.014H829V3079.7h0.54v-0.014h0.581v-0.014h0.651v-0.014h0.72v-0.014h0.83v-0.014h0.983v-0.014h1.3v-0.014h3.945v0.014h1.287v0.014h0.983v0.014h0.83v0.014h0.72v0.014h0.651v0.014h0.6v0.014h0.54v0.014h0.5v0.014h0.471v0.014h0.443v0.014h0.415v0.014h0.4v0.014h0.36v0.014h0.36v0.014h0.346v0.014h0.318v0.014h0.3v0.014h0.3v0.014h0.277v0.014h0.277v0.014H849.2v0.014h0.249v0.014H849.7v0.014h0.235v0.014h0.221v0.014h0.221v0.014H850.6V3080h0.194v0.014H851v0.014h0.152v0.014h0.125v0.014h0.152v0.014h0.125v0.014h0.125v0.014h0.111v0.014H851.9v0.014h0.083v0.014h0.1v0.014h0.069v0.014h0.083v0.014h0.083v0.014h0.055v0.014h0.069v0.014h0.055v0.014h0.069v0.014H852.6v0.014h0.055v0.014h0.055v0.014h0.055v0.014h0.042v0.014h0.055v0.014h0.042v0.014h0.042v0.014h0.042v0.014h0.042v0.014h0.042v0.014h0.042v0.014h0.042v0.014h0.028v0.014h0.042v0.014h0.028v0.014h0.042v0.014h0.028v0.014h0.042v0.014H853.4v0.014h0.028v0.014h0.028v0.014h0.028v0.014h0.028v0.014h0.042v0.014h0.028v0.014h0.028v0.014h0.028v0.014h0.028v0.014H853.7v0.014h0.028v0.014h0.028v0.014h0.028v0.014h0.028v0.014h0.028v0.014h0.014v0.014h0.028v0.014H853.9v0.014h0.028v0.014h0.028v0.014h0.028v0.014H854v0.014h0.028v0.014h0.028v0.014h0.014v0.014H854.1v0.014h0.014v0.014h0.028v0.014h0.028v0.014h0.014v0.014h0.028v0.014h0.014v0.014h0.028v0.014h0.014v0.014h0.028v0.014H854.3v0.014h0.028v0.014h0.014v0.014h0.028v0.014h0.014v0.014H854.4v0.014h0.028v0.014h0.014v0.014h0.014v0.014h0.028v0.014H854.5v0.014h0.028v0.014h0.014v0.014h0.014v0.014h0.028v0.014H854.6v0.014h0.014v0.014h0.014v0.014h0.028v0.014h0.014v0.014h0.014v0.014h0.014v0.014h0.014v0.014h0.028v0.014h0.014v0.014h0.014v0.014h0.014v0.014h0.014v0.014H854.8v0.014h0.028v0.014h0.014v0.014h0.014v0.014h0.014v0.014h0.014v0.014H854.9v0.014h0.014v0.014h0.014v0.014h0.028v0.014h0.014v0.014h0.014v0.014H855v0.014h0.014v0.014h0.014v0.014h0.014v0.014h0.014v0.014h0.014v0.014h0.014v0.014h0.014v0.014h0.014v0.014h0.014v0.014h0.014v0.014h0.014v0.014h0.014v0.014h0.014v0.014h0.014v0.014H855.2v0.014h0.014v0.014h0.014v0.014h0.014v0.028h0.014v0.014h0.014v0.014h0.014v0.014H855.3v0.014h0.014v0.014h0.014v0.014h0.014v0.014h0.014v0.028h0.014v0.014h0.014v0.014H855.4V3082h0.014v0.014h0.014v0.028h0.014v0.014h0.014v0.014h0.014v0.028h0.014v0.014h0.014v0.028h0.014v0.014h0.014v0.014h0.014v0.028h0.014v0.014h0.014v0.014h0.014v0.028h0.014v0.014h0.014v0.028h0.014v0.014h0.014v0.028h0.014v0.014h0.014v0.028h0.014v0.028h0.014v0.014H855.7v0.028h0.014v0.028h0.014v0.014h0.014v0.028h0.014v0.028h0.014v0.014h0.014v0.028H855.8v0.028h0.014v0.028h0.014v0.028h0.014v0.014h0.014v0.028h0.014v0.028h0.014v0.028H855.9v0.028h0.014v0.028h0.014v0.028h0.014v0.028h0.014v0.028h0.014v0.028h0.014v0.028h0.014v0.028h0.014v0.042h0.014v0.028h0.014v0.028h0.014v0.028h0.014v0.028h0.014v0.042h0.014v0.028H856.1v0.028h0.014v0.028h0.014v0.042h0.014v0.028h0.014v0.042h0.014v0.042h0.014v0.028H856.2v0.042h0.014v0.028h0.014v0.042h0.014v0.028h0.014v0.042h0.014v0.042h0.014v0.042H856.3v0.028h0.014v0.042h0.014v0.042h0.014v0.042h0.014v0.042h0.014v0.042h0.014v0.042h0.014v0.042h0.014v0.042h0.014v0.042h0.014v0.055h0.014v0.042h0.014v0.042h0.014v0.042h0.014v0.055h0.014v0.055h0.014v0.042h0.014v0.055h0.014v0.042h0.014v0.055h0.014v0.055h0.014v0.055H856.6v0.055h0.014v0.042h0.014v0.055h0.014v0.069h0.014v0.055h0.014v0.055h0.014v0.069H856.7v0.055h0.014v0.069h0.014v0.055h0.014v0.069h0.014v0.069h0.014v0.069h0.014v0.083H856.8v0.069h0.014v0.083h0.014v0.083h0.014v0.111h0.014v0.111h0.014v0.125h0.014v0.125h0.014v0.138h0.014v0.125h0.014v0.138h0.014v0.138h0.014v0.138h0.014v0.138h0.014v0.152h0.014v0.152H857v0.152h0.014v0.166h0.014v0.152h0.014v0.18h0.014v0.166h0.014v0.18h0.014v0.194H857.1v0.194h0.014v0.194h0.014v0.221h0.014v0.221h0.014v0.235h0.014v0.263h0.014v0.277H857.2v0.3h0.014v0.374h0.014v0.429h0.014v5.55h-0.014v0.415h-0.014v0.374H857.2v0.3h-0.014v0.291H857.17v0.249h-0.014v0.249h-0.014v0.208h-0.014v0.221h-0.014v0.194H857.1v0.194h-0.014v0.194h-0.014v0.18h-0.014v0.18h-0.014v0.166h-0.014v0.166h-0.014v0.152H857v0.152H856.99v0.152h-0.014v0.152h-0.014v0.138h-0.014v0.138h-0.014v0.152H856.92v0.125h-0.014v0.138h-0.014v0.125h-0.014v0.125h-0.014v0.125h-0.014v0.125h-0.014v0.1h-0.014v0.083H856.81v0.083H856.8v0.083h-0.014v0.069h-0.014v0.069h-0.014v0.069h-0.014v0.069h-0.014v0.069h-0.014v0.055H856.7v0.069h-0.014v0.055h-0.014v0.055h-0.014v0.069h-0.014v0.055H856.63v0.055h-0.014v0.055H856.6v0.055h-0.014v0.055h-0.014v0.055h-0.014v0.042h-0.014v0.055h-0.014v0.042h-0.014v0.055h-0.014v0.042h-0.014v0.055h-0.014v0.042h-0.014v0.042H856.45V3104h-0.014v0.042h-0.014v0.042h-0.014v0.042h-0.014v0.042h-0.014v0.055h-0.014v0.028h-0.014v0.042h-0.014v0.042h-0.014v0.042h-0.014v0.042H856.3v0.042h-0.014v0.042H856.27v0.028h-0.014v0.042h-0.014v0.042h-0.014v0.028h-0.014v0.042H856.2v0.028h-0.014v0.042h-0.014v0.028h-0.014v0.042h-0.014v0.028h-0.014v0.042h-0.014v0.028H856.1v0.028H856.09v0.042h-0.014v0.028h-0.014v0.028h-0.014v0.028h-0.014v0.042h-0.014v0.028h-0.014v0.028h-0.014v0.028h-0.014v0.028h-0.014v0.028h-0.014v0.028h-0.014v0.028h-0.014v0.028H855.91v0.028H855.9v0.028h-0.014v0.028h-0.014v0.028h-0.014v0.028h-0.014v0.028h-0.014v0.028h-0.014v0.028H855.8v0.014h-0.014v0.028h-0.014v0.028h-0.014v0.014h-0.014v0.028H855.73v0.028h-0.014v0.014H855.7v0.028h-0.014v0.028h-0.014v0.014h-0.014v0.028h-0.014v0.028h-0.014v0.014h-0.014v0.028h-0.014v0.014h-0.014v0.014h-0.014v0.028h-0.014v0.014H855.55v0.028h-0.014v0.014h-0.014v0.014h-0.014v0.028h-0.014v0.014h-0.014v0.028h-0.014v0.014h-0.014v0.014H855.44v0.028h-0.014v0.014h-0.014v0.014H855.4v0.014h-0.014v0.028H855.37v0.014h-0.014v0.014h-0.014v0.014h-0.014v0.014h-0.014v0.014H855.3v0.014h-0.014v0.014h-0.014v0.028H855.26v0.014h-0.014v0.014h-0.014v0.014h-0.014v0.014H855.2v0.014H855.19v0.014h-0.014v0.014h-0.014v0.014h-0.014v0.014h-0.014v0.014h-0.014v0.014h-0.014v0.014h-0.014v0.014H855.08v0.014h-0.014v0.014h-0.014v0.014h-0.014v0.014h-0.014v0.014H855.01v0.014H855v0.014h-0.014v0.014h-0.014v0.014h-0.014v0.014h-0.014v0.014h-0.014v0.014h-0.014v0.014H854.9v0.014h-0.028v0.014h-0.014v0.014h-0.014v0.014H854.83v0.014h-0.014v0.014H854.8v0.014h-0.028v0.014h-0.014v0.014h-0.014v0.014h-0.014v0.014H854.72v0.014h-0.028v0.014h-0.014v0.014h-0.014v0.014h-0.014v0.014h-0.014v0.014h-0.014v0.014H854.6v0.014h-0.014v0.014h-0.014v0.014H854.54v0.014h-0.014v0.014h-0.014V3107h-0.028v0.014h-0.014v0.014h-0.028v0.014h-0.014v0.014h-0.014v0.014h-0.028v0.014h-0.014v0.014H854.36v0.014h-0.028v0.014h-0.014v0.014H854.3v0.014h-0.028v0.014h-0.028v0.014h-0.014v0.014h-0.028v0.014h-0.014v0.014h-0.028v0.014h-0.028v0.014h-0.014v0.014H854.1v0.014h-0.014v0.014h-0.028v0.014h-0.028v0.014h-0.014v0.014h-0.028v0.014h-0.028v0.014h-0.014v0.014h-0.028v0.014h-0.028v0.014h-0.028v0.014h-0.028v0.014h-0.028v0.014h-0.028v0.014h-0.014v0.014h-0.028v0.014h-0.028v0.014h-0.028v0.014h-0.028v0.014h-0.042v0.014h-0.028v0.014h-0.028v0.014h-0.028v0.014H853.5v0.014h-0.028v0.014h-0.042v0.014H853.4v0.014h-0.028v0.014h-0.042v0.014h-0.028v0.014h-0.042v0.014h-0.042v0.014H853.2v0.014h-0.042v0.014h-0.028v0.014h-0.042v0.014h-0.042v0.014H853v0.014h-0.042v0.014H852.92v0.014h-0.055v0.014h-0.042v0.014h-0.042v0.014h-0.055v0.014h-0.055v0.014H852.63v0.014h-0.055v0.014h-0.069v0.014H852.45v0.014h-0.069v0.014h-0.055v0.014h-0.069v0.014h-0.083V3108H852.1v0.014h-0.1v0.014h-0.083v0.014h-0.1v0.014h-0.111v0.014h-0.125v0.014h-0.138v0.014h-0.138v0.014h-0.138v0.014h-0.125v0.014h-0.194v0.014h-0.208v0.014h-0.208v0.014h-0.221v0.014H850v0.014h-0.235v0.014h-0.235v0.014H849.28v0.014h-0.263v0.014h-0.263v0.014h-0.277v0.014h-0.291v0.014h-0.3v0.014h-0.3v0.014h-0.332v0.014H846.9v0.014h-0.36v0.014h-0.374v0.014h-0.388v0.014h-0.429v0.014h-0.443v0.014h-0.471v0.014h-0.5v0.014H843.4v0.014h-0.581v0.014H842.18v0.014h-0.706v0.014h-0.789v0.014h-0.927v0.014H838.6v0.014" transform="translate(-794.042 -3039.982)" fill="#fff"/><path d="M848.821,3092.812c0-1.294.355-1.646,1.192-1.646s1.161,0.384,1.161,1.664v1.511l-2.353,0v-1.531Zm4.988,3.6v-2.83a5.426,5.426,0,0,0-.815-3.259,3.507,3.507,0,0,0-2.957-1.447,3.59,3.59,0,0,0-3,1.447,5.563,5.563,0,0,0-.843,3.32v4.844a5.118,5.118,0,0,0,.874,3.191,3.587,3.587,0,0,0,3.033,1.417,3.466,3.466,0,0,0,3.031-1.5,3.569,3.569,0,0,0,.586-1.5,15.719,15.719,0,0,0,.089-1.63v-0.392h-2.63c0,1.005,0,1.6-.019,1.74a1.077,1.077,0,0,1-1.119,1.005c-0.86,0-1.223-.643-1.215-1.92v-2.486h4.988" transform="translate(-794.042 -3039.982)" fill="#8e2629"/><path d="M841.9,3098.908c0,1.384-.326,1.915-1.049,1.915a1.929,1.929,0,0,1-1.307-.631l0-8.394a1.947,1.947,0,0,1,1.3-.631c0.723,0,1.049.406,1.049,1.79v5.952Zm0.292-10.049a3.584,3.584,0,0,0-2.648,1.563l0-6.047h-2.491v18.547h2.491l0-1.393a3.56,3.56,0,0,0,2.641,1.572,2.055,2.055,0,0,0,2.061-1.562,10.644,10.644,0,0,0,.277-2.768v-5.536a9.707,9.707,0,0,0-.335-2.762,2.029,2.029,0,0,0-2-1.612" transform="translate(-794.042 -3039.982)" fill="#8e2629"/><path d="M834.98,3102.922h-2.63V3101.4c-1,1.143-1.842,1.72-2.763,1.72a1.653,1.653,0,0,1-1.651-1.07,5.569,5.569,0,0,1-.292-2.034v-10.934h2.63v11.211a0.509,0.509,0,0,0,.561.53,2.212,2.212,0,0,0,1.515-1.222v-10.519h2.63v13.841" transform="translate(-794.042 -3039.982)" fill="#8e2629"/><path d="M825.015,3102.922h-2.768V3087H819.34v-2.627l8.72,0V3087h-3.045v15.917" transform="translate(-794.042 -3039.982)" fill="#8e2629"/></svg>