<svg xmlns="http://www.w3.org/2000/svg" width="84.74" height="84.74" viewBox="0 0 84.74 84.74"><defs><style>.a{fill:#b61137;}.b{fill:#8e2629;}.c{fill:#fff;}</style></defs><title>social-instagram</title><circle class="a" cx="42.37" cy="42.37" r="42.37"/><path class="b" d="M682.42,3084.26l-21.88-21.88-22-.48-19.17,8.5,1.17,32.49,21.77,21.77A42.37,42.37,0,0,0,682.42,3084.26Z" transform="translate(-597.69 -3039.98)"/><path class="c" d="M661.9,3065.24q-0.07-.2-0.15-0.4t-0.28-.61a7.55,7.55,0,0,0-.9-1.37l-0.24-.27q-0.24-.27-0.51-0.51a7.58,7.58,0,0,0-.64-0.52l-0.33-.23a7.51,7.51,0,0,0-4.1-1.21H625.36a7.53,7.53,0,0,0-5.82,2.75c-0.13.16-.26,0.33-0.37,0.5s-0.26.39-.37,0.59a7.51,7.51,0,0,0-.46,1l-0.12.32a7.53,7.53,0,0,0-.4,2.42V3097a7.54,7.54,0,0,0,7.54,7.54h29.39a7.54,7.54,0,0,0,7.54-7.54v-29.39A7.53,7.53,0,0,0,661.9,3065.24Zm-13.41,1a2.19,2.19,0,0,1,2.18-2.18H655a2.19,2.19,0,0,1,2.18,2.18v4.38a2.19,2.19,0,0,1-2.18,2.18h-4.38a2.19,2.19,0,0,1-2.18-2.18v-4.38ZM633.43,3077a8.5,8.5,0,1,1-1.89,5.33A8.49,8.49,0,0,1,633.43,3077Zm25.91,20a4.6,4.6,0,0,1-4.6,4.6H625.36a4.6,4.6,0,0,1-4.6-4.6v-20h9.35a11.28,11.28,0,1,0,19.88,0h9.35v20Z" transform="translate(-597.69 -3039.98)"/></svg>